<?xml version="1.0" encoding="utf-8"?>
<!-- Generator: Adobe Illustrator 19.2.0, SVG Export Plug-In . SVG Version: 6.00 Build 0)  -->
<svg version="1.1" id="Capa_1" xmlns="http://www.w3.org/2000/svg" xmlns:xlink="http://www.w3.org/1999/xlink" x="0px" y="0px"
	 viewBox="0 0 68 68" style="enable-background:new 0 0 68 68;" xml:space="preserve">
<style type="text/css">
	.st0{fill:#FEC829;}
</style>
<path id="video-camera-2" class="st0" d="M37.3,25.3c0.6,0,1.1,0.5,1.1,1.1v15.3c0,0.6-0.5,1.1-1.1,1.1h-24c-0.6,0-1.1-0.5-1.1-1.1
	V26.4c0-0.6,0.5-1.1,1.1-1.1H37.3z M42.8,25.3c0-2.4-2-4.4-4.4-4.4H12.2c-2.4,0-4.4,2-4.4,4.4v17.5c0,2.4,2,4.4,4.4,4.4h26.2
	c2.4,0,4.4-2,4.4-4.4V25.3z M55.9,29.3v9.4l-4.4-3.1v-3.2L55.9,29.3z M60.2,20.9l-13.1,9.2v7.8l13.1,9.2V20.9z"/>
</svg>
