<?xml version="1.0" encoding="utf-8"?>
<!-- Generator: Adobe Illustrator 19.2.0, SVG Export Plug-In . SVG Version: 6.00 Build 0)  -->
<svg version="1.1" id="Capa_1" xmlns="http://www.w3.org/2000/svg" xmlns:xlink="http://www.w3.org/1999/xlink" x="0px" y="0px"
	 viewBox="0 0 68 68" style="enable-background:new 0 0 68 68;" xml:space="preserve">
<style type="text/css">
	.st0{fill:#FEC829;}
</style>
<path id="photo-camera-2" class="st0" d="M53,24.5v22.8H15V24.5H53z M56.8,20.7H11.2v30.4h45.5V20.7z M28.3,32.1h-9.5v-3.8h9.5V32.1
	z M20.7,18.8H15v-1.9h5.7V18.8z M41.6,32.1c2.1,0,3.8,1.7,3.8,3.8c0,2.1-1.7,3.8-3.8,3.8c-2.1,0-3.8-1.7-3.8-3.8
	C37.8,33.8,39.5,32.1,41.6,32.1z M41.6,28.3c-4.2,0-7.6,3.4-7.6,7.6s3.4,7.6,7.6,7.6c4.2,0,7.6-3.4,7.6-7.6S45.8,28.3,41.6,28.3z"/>
</svg>
