<svg id="Capa_1" data-name="Capa 1" xmlns="http://www.w3.org/2000/svg" viewBox="0 0 212 43.27"><defs><style>.cls-1{fill:#1e120d;}.cls-2{fill:#fff;}</style></defs><title>logo</title><path class="cls-1" d="M69.6,36.6c0-2.14,0-2.54,0-3a0.64,0.64,0,0,0-.62-0.77l-0.41,0a0.2,0.2,0,0,1-.21-0.13c0-.08.08-0.11,0.24-0.11,0.59,0,1.13,0,1.67,0,0.25,0,3.22,0,3.56,0a2.47,2.47,0,0,0,.74-0.11l0.16,0s0.08,0,0,.15a3.49,3.49,0,0,0-.1.51c-0.06.43,0,.72-0.08,1.15,0,0.18,0,.24-0.12.24s-0.11-.08-0.13-0.2a1.37,1.37,0,0,0-.26-0.82,1.36,1.36,0,0,0-.92-0.23c-0.7,0-1.34,0-2.06,0-0.12,0-.15,0-0.15.16v3.7c0,0.08,0,.15.11,0.15,0.67,0,1.46,0,2,0a1.2,1.2,0,0,0,1.1-.31,0.23,0.23,0,0,1,.16-0.13s0.07,0.07.07,0.15-0.07.36-.11,0.85a8.28,8.28,0,0,0-.07.95c0,0.16,0,.24-0.11.24S74,38.86,74,38.71a0.85,0.85,0,0,0-.85-0.88c-0.33,0-1.8,0-2.06,0-0.1,0-.11,0-0.11.15v1.15c0,1.1,0,2.08,0,2.73,0,0.82.13,0.93,0.59,1l0.51,0.07c0.13,0,.2,0,0.2.12s0,0.11-.21.11c-0.85,0-1.75,0-1.81,0H70.12c-0.31,0-1,0-1.32,0-0.15,0-.23,0-0.23-0.11s0-.1.16-0.12l0.34,0c0.38,0,.42-0.31.46-0.9s0.07-1.57.07-2.88V36.6Z"/><path class="cls-1" d="M87.86,36.6c0-2.16,0-2.55,0-3a0.65,0.65,0,0,0-.47-0.75c-0.16,0-.28,0-0.38,0s-0.18,0-.18-0.12,0.07-.11.25-0.11c0.51,0,1.44,0,1.49,0s1,0,1.47,0c0.16,0,.25,0,0.25.11s0,0.1-.18.12l-0.29,0c-0.47.06-.52,0.31-0.56,0.78s0,0.82,0,3v2.45c0,1.26,0,2.4.06,3a0.66,0.66,0,0,0,.56.75,3.78,3.78,0,0,0,.62.07c0.15,0,.18,0,0.18.12s-0.06.11-.23,0.11c-0.83,0-1.78,0-1.86,0s-1,0-1.47,0c-0.15,0-.26,0-0.26-0.11s0.07-.12.21-0.12a2,2,0,0,0,.39,0A0.77,0.77,0,0,0,87.78,42a29.3,29.3,0,0,0,.08-3V36.6Z"/><path class="cls-1" d="M105.42,39.09c0,1.88.07,2.83,0.34,3.09a2.41,2.41,0,0,0,1.72.33,2.09,2.09,0,0,0,1.73-.46,2.11,2.11,0,0,0,.31-0.82c0-.13,0-0.2.13-0.2s0.1,0,.1.21a10.58,10.58,0,0,1-.2,1.47c-0.1.33-.08,0.41-0.87,0.41-1.11,0-2.34-.08-4-0.08-0.54,0-.87,0-1.44,0-0.16,0-.26,0-0.26-0.13s0-.1.18-0.1a1.6,1.6,0,0,0,.39,0,0.75,0.75,0,0,0,.42-0.77,26.42,26.42,0,0,0,.06-3V36.6c0-2.16,0-2.52,0-3a0.68,0.68,0,0,0-.65-0.82,3.17,3.17,0,0,0-.41,0,0.15,0.15,0,0,1-.18-0.12c0-.08.08-0.11,0.24-0.11,0.69,0,1.67,0,1.7,0,0.23,0,1.23,0,1.68,0,0.16,0,.21,0,0.21.11a0.16,0.16,0,0,1-.18.12l-0.44,0a0.67,0.67,0,0,0-.59.8c0,0.44,0,.8,0,3v2.49Z"/><path class="cls-1" d="M133.25,41.29c0,0.39.15,1.31,0.78,1.46a5.74,5.74,0,0,0,.83.11c0.07,0,.21,0,0.21.1s-0.06.13-.24,0.13-2.06-.06-2.58-0.1c-0.36,0-.49-0.07-0.49-0.15a0.22,0.22,0,0,1,.15-0.15,0.47,0.47,0,0,0,.1-0.46l-0.72-7-3.47,7c-0.31.64-.36,0.78-0.51,0.78a1.32,1.32,0,0,1-.49-0.7c-0.26-.47-1.57-3.09-1.67-3.24s-1.7-3.37-1.83-3.71l-0.61,6.3c0,0.23,0,.38,0,0.62a0.47,0.47,0,0,0,.41.49c0.18,0,.29,0,0.46,0s0.16,0.07.16,0.1-0.1.13-.28,0.13c-0.52,0-1.23,0-1.36,0s-0.85,0-1.26,0c-0.15,0-.25,0-0.25-0.13a0.19,0.19,0,0,1,.21-0.1l0.31,0c0.39,0,.54-0.42.62-1.08l1.1-9c0-.28.1-0.41,0.18-0.41s0.13,0.05.25,0.26l4.38,8.49,4.17-8.47a0.35,0.35,0,0,1,.25-0.28c0.1,0,.15.15,0.16,0.41Z"/><path class="cls-1" d="M146.55,42.91c-0.21-.1-0.21-0.16-0.21-0.56,0-.75,0-1.31.06-1.54s0.05-.23.13-0.23,0.11,0,.11.16a2,2,0,0,0,0,.49,2,2,0,0,0,2.13,1.47,1.83,1.83,0,0,0,2-1.75c0-.93-0.42-1.5-1.62-2.47L148.56,38c-1.57-1.26-1.9-2.13-1.9-3.09,0-1.5,1.19-2.52,3-2.52a5.72,5.72,0,0,1,1.32.13,2.73,2.73,0,0,0,.56.08c0.12,0,.15,0,0.15.1s-0.07.64-.07,1.59c0,0.25,0,.34-0.12.34s-0.1-.07-0.11-0.18a2.19,2.19,0,0,0-.2-0.77,1.86,1.86,0,0,0-1.83-.77,1.56,1.56,0,0,0-1.72,1.57c0,0.77.39,1.24,1.75,2.27L149.81,37c1.7,1.31,2.14,2.17,2.14,3.34a2.87,2.87,0,0,1-1.24,2.32,4.09,4.09,0,0,1-2.21.57A4.65,4.65,0,0,1,146.55,42.91Z"/><path class="cls-1" d="M2.85,11c0-5.12,0-6-.06-7.09S2.46,2.25,1.38,2a6.18,6.18,0,0,0-1.12-.1A0.23,0.23,0,0,1,0,1.72c0-.2.16-0.26,0.52-0.26,1.48,0,3.45.1,3.71,0.1,0.72,0,2.62-.1,4.14-0.1,4.1,0,5.58,1.38,6.1,1.87a6,6,0,0,1,1.64,4.3C16.11,11.9,12.7,15,8,15a4.85,4.85,0,0,1-.69,0A0.31,0.31,0,0,1,7,14.78c0-.26.2-0.3,0.88-0.3a5.41,5.41,0,0,0,5.68-5.61,6.77,6.77,0,0,0-1.84-4.79,5.7,5.7,0,0,0-4.5-1.64,4,4,0,0,0-1.41.2,0.58,0.58,0,0,0-.26.62V16.75c0,3.15,0,5.74.16,7.12,0.1,1,.3,1.67,1.28,1.8a14.06,14.06,0,0,0,1.48.13,0.21,0.21,0,0,1,.26.2c0,0.16-.17.26-0.53,0.26-1.8,0-3.87-.1-4-0.1S2,26.27,1,26.27c-0.36,0-.53-0.07-0.53-0.26a0.21,0.21,0,0,1,.26-0.2,5,5,0,0,0,1-.13c0.66-.13.82-0.85,1-1.8,0.16-1.38.16-4,.16-7.12V11Z"/><path class="cls-1" d="M21.46,13.24c0-4.33,0-5.12-.07-6a1.41,1.41,0,0,0-1.31-1.58,5.43,5.43,0,0,0-.79-0.07c-0.23,0-.36-0.07-0.36-0.2s0.1-.23.39-0.23c1.41,0,3.41.1,3.48,0.1,0.3,0,2.53-.1,3.45-0.1a9.28,9.28,0,0,1,5.38,1.25,5,5,0,0,1,2,4c0,1.8-.89,4.1-3.48,6.2,2.4,3,4.36,5.38,6,7.12a5.51,5.51,0,0,0,3.48,2c0.23,0,.92.07,1,0.07,0.26,0,.36.1,0.36,0.23s-0.13.23-.59,0.23h-2.3a7.35,7.35,0,0,1-3-.39c-1.38-.59-2.36-2.07-4.07-4.27-1.28-1.58-2.59-3.35-3.15-4a0.47,0.47,0,0,0-.39-0.2l-3.38,0c-0.13,0-.17,0-0.17.16V18a61.23,61.23,0,0,0,.17,6.2c0.1,0.79.2,1.44,1.28,1.58,0.33,0,.69.07,1,0.07s0.43,0.1.43,0.2-0.13.26-.46,0.26c-1.71,0-3.54-.1-3.68-0.1-0.53,0-2,.1-2.85.1-0.33,0-.46-0.07-0.46-0.26a0.39,0.39,0,0,1,.39-0.2,2.84,2.84,0,0,0,.72-0.07c0.56-.1.76-0.46,0.85-1.25,0.16-1.18.13-3.87,0.13-6.33V13.24ZM24,15.57a0.41,0.41,0,0,0,.17.4,8.44,8.44,0,0,0,2.92.43,3.85,3.85,0,0,0,2.2-.49c1-.62,1.64-2.07,1.64-4.17,0-3.58-1.9-5.55-4.82-5.55a8.75,8.75,0,0,0-1.9.16,0.3,0.3,0,0,0-.2.29v8.93Z"/><path class="cls-1" d="M39.67,15.67A11.07,11.07,0,0,1,51.16,4.77c6.5,0,11.45,3.87,11.45,10.47A11.17,11.17,0,0,1,51,26.63C43,26.63,39.67,20.66,39.67,15.67Zm19.85,0.39c0-6.6-4.07-10.27-8.57-10.27s-8.24,2.82-8.24,9c0,6.43,3.58,10.7,9.09,10.7C54,25.52,59.52,24.4,59.52,16.06Z"/><path class="cls-1" d="M90.37,22.66c0.1,0.79.29,2.63,1.58,2.92a11.31,11.31,0,0,0,1.67.23c0.13,0,.43,0,0.43.2s-0.13.26-.49,0.26c-0.59,0-4.13-.13-5.18-0.2-0.72-.07-1-0.13-1-0.29a0.43,0.43,0,0,1,.3-0.3,1,1,0,0,0,.2-0.92l-1.44-14-7,14.11c-0.62,1.28-.72,1.58-1,1.58s-0.36-.29-1-1.41c-0.53-1-3.15-6.2-3.35-6.5s-3.41-6.76-3.68-7.45L69.23,23.48c0,0.46,0,.75,0,1.25a1,1,0,0,0,.82,1c0.36,0.07.59,0.07,0.92,0.1s0.33,0.13.33,0.2c0,0.23-.2.26-0.56,0.26-1.05,0-2.46-.1-2.72-0.1s-1.71.1-2.53,0.1c-0.29,0-.49,0-0.49-0.26a0.39,0.39,0,0,1,.43-0.2,5,5,0,0,0,.62,0c0.79-.07,1.08-0.85,1.25-2.17l2.2-18c0.06-.56.2-0.82,0.36-0.82s0.26,0.1.49,0.53l8.79,17,8.37-17A0.71,0.71,0,0,1,88,4.77c0.2,0,.3.29,0.33,0.82Z"/><path class="cls-1" d="M98.21,13.24c0-4.3,0-5.09-.06-6a1.39,1.39,0,0,0-1.25-1.58,5.46,5.46,0,0,0-.79-0.07,0.41,0.41,0,0,1-.43-0.2c0-.2.16-0.26,0.49-0.26,0.66,0,1.54.07,3.38,0.1,0.16,0,6,0,6.66,0a4.58,4.58,0,0,0,1.28-.16,1,1,0,0,1,.36-0.1C107.92,5,108,5,108,5.2s-0.2.66-.26,1.48c0,0.56-.07,1.08-0.1,1.71,0,0.3-.07.49-0.23,0.49s-0.23-.13-0.23-0.36a3.1,3.1,0,0,0-.23-1.05c-0.2-.66-0.49-0.89-2.13-1-0.43,0-3.67-.07-3.74-0.07s-0.16.07-.16,0.26v7.45c0,0.2,0,.33.2,0.33,0.39,0,3.74,0,4.43-.1a1.85,1.85,0,0,0,1.51-.49,0.43,0.43,0,0,1,.36-0.26c0.07,0,.13,0,0.13.2s-0.13.79-.23,1.74-0.1,1.58-.13,2c0,0.26-.1.36-0.23,0.36s-0.2-.2-0.2-0.43a3.63,3.63,0,0,0-.1-0.79c-0.13-.43-0.33-0.89-1.57-1-0.75-.07-3.41-0.13-3.94-0.13a0.19,0.19,0,0,0-.23.23V18.2c0,1,0,3.91,0,4.46,0.06,1.21.23,1.84,0.92,2.13a6.23,6.23,0,0,0,2.4.3,9.78,9.78,0,0,0,2.49-.2c1-.3,1.21-1,1.48-2.17,0.07-.33.16-0.46,0.3-0.46s0.2,0.29.2,0.49-0.26,2.3-.36,2.85-0.36.72-1.44,0.72c-2.17,0-3.09-.07-4.23-0.07s-2.66-.1-3.87-0.1c-0.75,0-1.38.1-2.17,0.1-0.3,0-.46-0.07-0.46-0.23a0.27,0.27,0,0,1,.3-0.23,2.41,2.41,0,0,0,.66-0.1c0.59-.13,1-0.56,1.05-2.59,0-1.12.06-2.46,0.06-5V13.24Z"/><path class="cls-1" d="M121.57,18.17c0,2.53,0,4.86.16,6.07,0.1,0.79.16,1.25,1,1.44a6.45,6.45,0,0,0,1.28.13c0.26,0,.39.1,0.39,0.2s-0.1.26-.43,0.26c-1.67,0-3.61-.1-3.74-0.1s-2.07.1-2.92,0.1c-0.36,0-.49-0.07-0.49-0.23a0.3,0.3,0,0,1,.36-0.23,5.42,5.42,0,0,0,.72,0c0.62-.1.72-0.49,0.85-1.61s0.13-3.55.13-6V6.45c-1.08,0-2.82,0-4.13,0-2.1,0-2.56.36-3,1a5.17,5.17,0,0,0-.49,1c-0.1.23-.16,0.26-0.29,0.26s-0.17-.13-0.17-0.3,0.46-2.36.66-3.25c0.1-.39.2-0.52,0.3-0.52s0.85,0.29,1.44.36c1.15,0.13,2.07.16,2.1,0.16H126a14.2,14.2,0,0,0,2.36-.16A4,4,0,0,1,129,5a0.26,0.26,0,0,1,.2.3c0,0.92-.06,3.08-0.06,3.35S129,9,128.92,9s-0.23-.13-0.23-0.39a3.61,3.61,0,0,0,0-.46c-0.13-1.31-.56-1.64-3.87-1.67-1.25,0-2.26,0-3.22,0V18.17Z"/><path class="cls-1" d="M149,14c0.1,0,.2,0,0.2-0.16V13.21c0-4.33,0-5.09-.06-6a1.32,1.32,0,0,0-1.28-1.54,6.41,6.41,0,0,0-.82-0.07,0.33,0.33,0,0,1-.39-0.23c0-.2.16-0.23,0.46-0.23,1.38,0,3.31.1,3.45,0.1s2-.1,3-0.1c0.33,0,.53,0,0.53.23a0.3,0.3,0,0,1-.36.23,4.45,4.45,0,0,0-.66.07c-0.89.13-1,.66-1.08,1.58s0,1.64,0,6v4.92c0,2.69,0,4.82.13,6,0.1,0.79.26,1.44,1.12,1.54a8,8,0,0,0,1.15.1c0.26,0,.43.1,0.43,0.23s-0.17.23-.49,0.23c-1.64,0-3.54-.1-3.71-0.1s-2,.1-2.92.1c-0.33,0-.49-0.07-0.49-0.26s0.1-.2.36-0.2a3,3,0,0,0,.75-0.07c0.56-.1.72-0.82,0.82-1.58a54.89,54.89,0,0,0,.16-5.91V15.34a0.19,0.19,0,0,0-.2-0.2H137.12c-0.1,0-.16,0-0.16.2v2.92a56.27,56.27,0,0,0,.16,6c0.1,0.72.26,1.38,1.12,1.48a8.78,8.78,0,0,0,1.18.1,0.33,0.33,0,0,1,.39.23c0,0.13-.13.23-0.43,0.23-1.67,0-3.61-.1-3.77-0.1s-2.1.1-3,.1c-0.33,0-.53-0.07-0.53-0.23s0.06-.23.36-0.23a3.19,3.19,0,0,0,.79-0.1c0.59-.13.72-0.75,0.82-1.48a50.3,50.3,0,0,0,.16-6.07V13.31c0-4.33,0-5.19-.06-6.07A1.37,1.37,0,0,0,133,5.66a8.69,8.69,0,0,0-.89-0.07,0.31,0.31,0,0,1-.36-0.2c0-.2.16-0.23,0.49-0.23,1.41,0,3,.1,3.41.1,0.13,0,2-.1,3-0.1,0.33,0,.49.07,0.49,0.23s-0.13.2-.33,0.2a2.83,2.83,0,0,0-.66.07c-0.82.13-1,.69-1.08,1.61s0,1.61,0,5.94V13.8c0,0.16.1,0.16,0.2,0.16H149Z"/><path class="cls-1" d="M161.21,13.24c0-4.3,0-5.09-.07-6a1.39,1.39,0,0,0-1.25-1.58,5.46,5.46,0,0,0-.79-0.07,0.41,0.41,0,0,1-.43-0.2c0-.2.16-0.26,0.49-0.26,0.66,0,1.54.07,3.38,0.1,0.16,0,6,0,6.66,0a4.56,4.56,0,0,0,1.28-.16,1,1,0,0,1,.36-0.1C170.92,5,171,5,171,5.2a14.92,14.92,0,0,0-.26,1.48c0,0.56-.07,1.08-0.1,1.71,0,0.3-.07.49-0.23,0.49s-0.23-.13-0.23-0.36a3.16,3.16,0,0,0-.23-1.05c-0.2-.66-0.49-0.89-2.13-1-0.43,0-3.68-.07-3.74-0.07s-0.16.07-.16,0.26v7.45c0,0.2,0,.33.2,0.33,0.39,0,3.74,0,4.43-.1a1.85,1.85,0,0,0,1.51-.49,0.43,0.43,0,0,1,.36-0.26c0.07,0,.13,0,0.13.2s-0.13.79-.23,1.74-0.1,1.58-.13,2c0,0.26-.1.36-0.23,0.36s-0.2-.2-0.2-0.43a3.67,3.67,0,0,0-.1-0.79c-0.13-.43-0.33-0.89-1.58-1-0.75-.07-3.41-0.13-3.94-0.13a0.19,0.19,0,0,0-.23.23V18.2c0,1,0,3.91,0,4.46,0.07,1.21.23,1.84,0.92,2.13a6.23,6.23,0,0,0,2.4.3,9.78,9.78,0,0,0,2.49-.2c1-.3,1.21-1,1.48-2.17,0.07-.33.17-0.46,0.3-0.46s0.2,0.29.2,0.49-0.26,2.3-.36,2.85-0.36.72-1.44,0.72c-2.17,0-3.08-.07-4.23-0.07s-2.66-.1-3.87-0.1c-0.75,0-1.38.1-2.17,0.1-0.3,0-.46-0.07-0.46-0.23a0.26,0.26,0,0,1,.3-0.23,2.42,2.42,0,0,0,.66-0.1c0.59-.13,1-0.56,1-2.59,0-1.12.07-2.46,0.07-5V13.24Z"/><path class="cls-1" d="M179.22,17.15c0,4,.76,5.71,2,6.83a6.24,6.24,0,0,0,4.33,1.51,5.55,5.55,0,0,0,4.5-1.9c1.31-1.51,1.61-4,1.61-6.86V13.24c0-4.3,0-5.05-.07-5.94s-0.17-1.44-1.22-1.61a7.58,7.58,0,0,0-.92-0.07,0.29,0.29,0,0,1-.33-0.2c0-.2.16-0.26,0.46-0.26,1.41,0,3.05.1,3.18,0.1s1.58-.1,2.49-0.1c0.33,0,.46.07,0.46,0.23a0.28,0.28,0,0,1-.33.23,4.46,4.46,0,0,0-.59,0c-0.92.1-1.05,0.69-1.12,1.64s0,1.64,0,5.94v2.92c0,3-.33,6.5-2.66,8.5a8.52,8.52,0,0,1-6,2c-0.92,0-4,0-6.14-2-1.41-1.31-2.43-3.28-2.43-7.35V13.24c0-4.33,0-5.09-.1-6s-0.2-1.44-1.21-1.58a6.47,6.47,0,0,0-.85-0.07,0.31,0.31,0,0,1-.36-0.2c0-.2.13-0.26,0.49-0.26,1.41,0,3.18.1,3.41,0.1s2.2-.1,3.09-0.1c0.36,0,.46.07,0.46,0.23a0.35,0.35,0,0,1-.39.23,6.59,6.59,0,0,0-.72.07c-0.79.1-.92,0.66-1,1.58s0,1.64,0,6v3.91Z"/><path class="cls-1" d="M199.86,25.84c-0.46-.23-0.49-0.36-0.49-1.25,0-1.64.13-3,.16-3.48,0-.36.1-0.52,0.26-0.52S200,20.69,200,21a5.76,5.76,0,0,0,.1,1.21c0.49,2.43,2.66,3.35,4.86,3.35a4.38,4.38,0,0,0,4.69-4.37c0-2.26-1-3.58-3.77-5.91L204.42,14c-3.48-2.86-4.27-4.89-4.27-7.12,0-3.51,2.62-5.91,6.79-5.91a12.73,12.73,0,0,1,3.05.33,5.33,5.33,0,0,0,1.15.16c0.26,0,.33.07,0.33,0.23S211.34,3,211.34,5.2c0,0.52-.07.76-0.23,0.76s-0.23-.16-0.26-0.43a5.72,5.72,0,0,0-.43-1.64c-0.2-.36-1.08-1.74-4.1-1.74a3.73,3.73,0,0,0-4,3.81c0,1.87.85,3.05,4,5.51l0.92,0.72c3.87,3.05,4.79,5.09,4.79,7.71a6.8,6.8,0,0,1-2.79,5.45,8.63,8.63,0,0,1-5,1.38A10,10,0,0,1,199.86,25.84Z"/><path class="cls-2" d="M69.6,35.6c0-2.14,0-2.54,0-3a0.64,0.64,0,0,0-.62-0.77l-0.41,0a0.2,0.2,0,0,1-.21-0.13c0-.08.08-0.11,0.24-0.11,0.59,0,1.13,0,1.67,0,0.25,0,3.22,0,3.56,0a2.47,2.47,0,0,0,.74-0.11l0.16,0s0.08,0,0,.15a3.49,3.49,0,0,0-.1.51c-0.06.43,0,.72-0.08,1.15,0,0.18,0,.24-0.12.24s-0.11-.08-0.13-0.2a1.37,1.37,0,0,0-.26-0.82,1.36,1.36,0,0,0-.92-0.23c-0.7,0-1.34,0-2.06,0-0.12,0-.15,0-0.15.16v3.7c0,0.08,0,.15.11,0.15,0.67,0,1.46,0,2,0a1.2,1.2,0,0,0,1.1-.31,0.23,0.23,0,0,1,.16-0.13s0.07,0.07.07,0.15-0.07.36-.11,0.85a8.28,8.28,0,0,0-.07.95c0,0.16,0,.24-0.11.24S74,37.86,74,37.71a0.85,0.85,0,0,0-.85-0.88c-0.33,0-1.8,0-2.06,0-0.1,0-.11,0-0.11.15v1.15c0,1.1,0,2.08,0,2.73,0,0.82.13,0.93,0.59,1l0.51,0.07c0.13,0,.2,0,0.2.12s0,0.11-.21.11c-0.85,0-1.75,0-1.81,0H70.12c-0.31,0-1,0-1.32,0-0.15,0-.23,0-0.23-0.11s0-.1.16-0.12l0.34,0c0.38,0,.42-0.31.46-0.9s0.07-1.57.07-2.88V35.6Z"/><path class="cls-2" d="M87.86,35.6c0-2.16,0-2.55,0-3a0.65,0.65,0,0,0-.47-0.75c-0.16,0-.28,0-0.38,0s-0.18,0-.18-0.12,0.07-.11.25-0.11c0.51,0,1.44,0,1.49,0s1,0,1.47,0c0.16,0,.25,0,0.25.11s0,0.1-.18.12l-0.29,0c-0.47.06-.52,0.31-0.56,0.78s0,0.82,0,3v2.45c0,1.26,0,2.4.06,3a0.66,0.66,0,0,0,.56.75,3.78,3.78,0,0,0,.62.07c0.15,0,.18,0,0.18.12s-0.06.11-.23,0.11c-0.83,0-1.78,0-1.86,0s-1,0-1.47,0c-0.15,0-.26,0-0.26-0.11s0.07-.12.21-0.12a2,2,0,0,0,.39,0A0.77,0.77,0,0,0,87.78,41a29.3,29.3,0,0,0,.08-3V35.6Z"/><path class="cls-2" d="M105.42,38.09c0,1.88.07,2.83,0.34,3.09a2.41,2.41,0,0,0,1.72.33,2.09,2.09,0,0,0,1.73-.46,2.11,2.11,0,0,0,.31-0.82c0-.13,0-0.2.13-0.2s0.1,0,.1.21a10.58,10.58,0,0,1-.2,1.47c-0.1.33-.08,0.41-0.87,0.41-1.11,0-2.34-.08-4-0.08-0.54,0-.87,0-1.44,0-0.16,0-.26,0-0.26-0.13s0-.1.18-0.1a1.6,1.6,0,0,0,.39,0,0.75,0.75,0,0,0,.42-0.77,26.42,26.42,0,0,0,.06-3V35.6c0-2.16,0-2.52,0-3a0.68,0.68,0,0,0-.65-0.82,3.17,3.17,0,0,0-.41,0,0.15,0.15,0,0,1-.18-0.12c0-.08.08-0.11,0.24-0.11,0.69,0,1.67,0,1.7,0,0.23,0,1.23,0,1.68,0,0.16,0,.21,0,0.21.11a0.16,0.16,0,0,1-.18.12l-0.44,0a0.67,0.67,0,0,0-.59.8c0,0.44,0,.8,0,3v2.49Z"/><path class="cls-2" d="M133.25,40.29c0,0.39.15,1.31,0.78,1.46a5.74,5.74,0,0,0,.83.11c0.07,0,.21,0,0.21.1s-0.06.13-.24,0.13-2.06-.06-2.58-0.1c-0.36,0-.49-0.07-0.49-0.15a0.22,0.22,0,0,1,.15-0.15,0.47,0.47,0,0,0,.1-0.46l-0.72-7-3.47,7c-0.31.64-.36,0.78-0.51,0.78a1.32,1.32,0,0,1-.49-0.7c-0.26-.47-1.57-3.09-1.67-3.24s-1.7-3.37-1.83-3.71l-0.61,6.3c0,0.23,0,.38,0,0.62a0.47,0.47,0,0,0,.41.49c0.18,0,.29,0,0.46,0s0.16,0.07.16,0.1-0.1.13-.28,0.13c-0.52,0-1.23,0-1.36,0s-0.85,0-1.26,0c-0.15,0-.25,0-0.25-0.13a0.19,0.19,0,0,1,.21-0.1l0.31,0c0.39,0,.54-0.42.62-1.08l1.1-9c0-.28.1-0.41,0.18-0.41s0.13,0.05.25,0.26l4.38,8.49,4.17-8.47a0.35,0.35,0,0,1,.25-0.28c0.1,0,.15.15,0.16,0.41Z"/><path class="cls-2" d="M146.55,41.91c-0.21-.1-0.21-0.16-0.21-0.56,0-.75,0-1.31.06-1.54s0.05-.23.13-0.23,0.11,0,.11.16a2,2,0,0,0,0,.49,2,2,0,0,0,2.13,1.47,1.83,1.83,0,0,0,2-1.75c0-.93-0.42-1.5-1.62-2.47L148.56,37c-1.57-1.26-1.9-2.13-1.9-3.09,0-1.5,1.19-2.52,3-2.52a5.72,5.72,0,0,1,1.32.13,2.73,2.73,0,0,0,.56.08c0.12,0,.15,0,0.15.1s-0.07.64-.07,1.59c0,0.25,0,.34-0.12.34s-0.1-.07-0.11-0.18a2.19,2.19,0,0,0-.2-0.77,1.86,1.86,0,0,0-1.83-.77,1.56,1.56,0,0,0-1.72,1.57c0,0.77.39,1.24,1.75,2.27L149.81,36c1.7,1.31,2.14,2.17,2.14,3.34a2.87,2.87,0,0,1-1.24,2.32,4.09,4.09,0,0,1-2.21.57A4.65,4.65,0,0,1,146.55,41.91Z"/><path class="cls-2" d="M2.85,10c0-5.12,0-6-.06-7.09S2.46,1.25,1.38,1A6.18,6.18,0,0,0,.26.92,0.23,0.23,0,0,1,0,.72c0-.2.16-0.26,0.52-0.26C2,0.46,4,.56,4.23.56c0.72,0,2.62-.1,4.14-0.1,4.1,0,5.58,1.38,6.1,1.87a6,6,0,0,1,1.64,4.3C16.11,10.9,12.7,14,8,14a4.85,4.85,0,0,1-.69,0A0.31,0.31,0,0,1,7,13.78c0-.26.2-0.3,0.88-0.3a5.41,5.41,0,0,0,5.68-5.61,6.77,6.77,0,0,0-1.84-4.79,5.7,5.7,0,0,0-4.5-1.64,4,4,0,0,0-1.41.2,0.58,0.58,0,0,0-.26.62V15.75c0,3.15,0,5.74.16,7.12,0.1,1,.3,1.67,1.28,1.8a14.06,14.06,0,0,0,1.48.13,0.21,0.21,0,0,1,.26.2c0,0.16-.17.26-0.53,0.26-1.8,0-3.87-.1-4-0.1S2,25.27,1,25.27c-0.36,0-.53-0.07-0.53-0.26a0.21,0.21,0,0,1,.26-0.2,5,5,0,0,0,1-.13c0.66-.13.82-0.85,1-1.8,0.16-1.38.16-4,.16-7.12V10Z"/><path class="cls-2" d="M21.46,12.24c0-4.33,0-5.12-.07-6a1.41,1.41,0,0,0-1.31-1.58,5.43,5.43,0,0,0-.79-0.07c-0.23,0-.36-0.07-0.36-0.2s0.1-.23.39-0.23c1.41,0,3.41.1,3.48,0.1,0.3,0,2.53-.1,3.45-0.1a9.28,9.28,0,0,1,5.38,1.25,5,5,0,0,1,2,4c0,1.8-.89,4.1-3.48,6.2,2.4,3,4.36,5.38,6,7.12a5.51,5.51,0,0,0,3.48,2c0.23,0,.92.07,1,0.07,0.26,0,.36.1,0.36,0.23s-0.13.23-.59,0.23h-2.3a7.35,7.35,0,0,1-3-.39c-1.38-.59-2.36-2.07-4.07-4.27-1.28-1.58-2.59-3.35-3.15-4a0.47,0.47,0,0,0-.39-0.2l-3.38,0c-0.13,0-.17,0-0.17.16V17a61.23,61.23,0,0,0,.17,6.2c0.1,0.79.2,1.44,1.28,1.58,0.33,0,.69.07,1,0.07s0.43,0.1.43,0.2-0.13.26-.46,0.26c-1.71,0-3.54-.1-3.68-0.1-0.53,0-2,.1-2.85.1-0.33,0-.46-0.07-0.46-0.26a0.39,0.39,0,0,1,.39-0.2,2.84,2.84,0,0,0,.72-0.07c0.56-.1.76-0.46,0.85-1.25,0.16-1.18.13-3.87,0.13-6.33V12.24ZM24,14.57a0.41,0.41,0,0,0,.17.4,8.44,8.44,0,0,0,2.92.43,3.85,3.85,0,0,0,2.2-.49c1-.62,1.64-2.07,1.64-4.17,0-3.58-1.9-5.55-4.82-5.55a8.75,8.75,0,0,0-1.9.16,0.3,0.3,0,0,0-.2.29v8.93Z"/><path class="cls-2" d="M39.67,14.67A11.07,11.07,0,0,1,51.16,3.77c6.5,0,11.45,3.87,11.45,10.47A11.17,11.17,0,0,1,51,25.63C43,25.63,39.67,19.66,39.67,14.67Zm19.85,0.39c0-6.6-4.07-10.27-8.57-10.27s-8.24,2.82-8.24,9c0,6.43,3.58,10.7,9.09,10.7C54,24.52,59.52,23.4,59.52,15.06Z"/><path class="cls-2" d="M90.37,21.66c0.1,0.79.29,2.63,1.58,2.92a11.31,11.31,0,0,0,1.67.23c0.13,0,.43,0,0.43.2s-0.13.26-.49,0.26c-0.59,0-4.13-.13-5.18-0.2-0.72-.07-1-0.13-1-0.29a0.43,0.43,0,0,1,.3-0.3,1,1,0,0,0,.2-0.92l-1.44-14-7,14.11c-0.62,1.28-.72,1.58-1,1.58s-0.36-.29-1-1.41c-0.53-1-3.15-6.2-3.35-6.5s-3.41-6.76-3.68-7.45L69.23,22.48c0,0.46,0,.75,0,1.25a1,1,0,0,0,.82,1c0.36,0.07.59,0.07,0.92,0.1s0.33,0.13.33,0.2c0,0.23-.2.26-0.56,0.26-1.05,0-2.46-.1-2.72-0.1s-1.71.1-2.53,0.1c-0.29,0-.49,0-0.49-0.26a0.39,0.39,0,0,1,.43-0.2,5,5,0,0,0,.62,0c0.79-.07,1.08-0.85,1.25-2.17l2.2-18c0.06-.56.2-0.82,0.36-0.82s0.26,0.1.49,0.53l8.79,17,8.37-17A0.71,0.71,0,0,1,88,3.77c0.2,0,.3.29,0.33,0.82Z"/><path class="cls-2" d="M98.21,12.24c0-4.3,0-5.09-.06-6a1.39,1.39,0,0,0-1.25-1.58,5.46,5.46,0,0,0-.79-0.07,0.41,0.41,0,0,1-.43-0.2c0-.2.16-0.26,0.49-0.26,0.66,0,1.54.07,3.38,0.1,0.16,0,6,0,6.66,0a4.58,4.58,0,0,0,1.28-.16,1,1,0,0,1,.36-0.1C107.92,4,108,4,108,4.2s-0.2.66-.26,1.48c0,0.56-.07,1.08-0.1,1.71,0,0.3-.07.49-0.23,0.49s-0.23-.13-0.23-0.36a3.1,3.1,0,0,0-.23-1.05c-0.2-.66-0.49-0.89-2.13-1-0.43,0-3.67-.07-3.74-0.07s-0.16.07-.16,0.26v7.45c0,0.2,0,.33.2,0.33,0.39,0,3.74,0,4.43-.1a1.85,1.85,0,0,0,1.51-.49,0.43,0.43,0,0,1,.36-0.26c0.07,0,.13,0,0.13.2s-0.13.79-.23,1.74-0.1,1.58-.13,2c0,0.26-.1.36-0.23,0.36s-0.2-.2-0.2-0.43a3.63,3.63,0,0,0-.1-0.79c-0.13-.43-0.33-0.89-1.57-1-0.75-.07-3.41-0.13-3.94-0.13a0.19,0.19,0,0,0-.23.23V17.2c0,1,0,3.91,0,4.46,0.06,1.21.23,1.84,0.92,2.13a6.23,6.23,0,0,0,2.4.3,9.78,9.78,0,0,0,2.49-.2c1-.3,1.21-1,1.48-2.17,0.07-.33.16-0.46,0.3-0.46s0.2,0.29.2,0.49-0.26,2.3-.36,2.85-0.36.72-1.44,0.72c-2.17,0-3.09-.07-4.23-0.07s-2.66-.1-3.87-0.1c-0.75,0-1.38.1-2.17,0.1-0.3,0-.46-0.07-0.46-0.23a0.27,0.27,0,0,1,.3-0.23,2.41,2.41,0,0,0,.66-0.1c0.59-.13,1-0.56,1.05-2.59,0-1.12.06-2.46,0.06-5V12.24Z"/><path class="cls-2" d="M121.57,17.17c0,2.53,0,4.86.16,6.07,0.1,0.79.16,1.25,1,1.44a6.45,6.45,0,0,0,1.28.13c0.26,0,.39.1,0.39,0.2s-0.1.26-.43,0.26c-1.67,0-3.61-.1-3.74-0.1s-2.07.1-2.92,0.1c-0.36,0-.49-0.07-0.49-0.23a0.3,0.3,0,0,1,.36-0.23,5.42,5.42,0,0,0,.72,0c0.62-.1.72-0.49,0.85-1.61s0.13-3.55.13-6V5.45c-1.08,0-2.82,0-4.13,0-2.1,0-2.56.36-3,1a5.17,5.17,0,0,0-.49,1c-0.1.23-.16,0.26-0.29,0.26s-0.17-.13-0.17-0.3,0.46-2.36.66-3.25c0.1-.39.2-0.52,0.3-0.52s0.85,0.29,1.44.36c1.15,0.13,2.07.16,2.1,0.16H126a14.2,14.2,0,0,0,2.36-.16A4,4,0,0,1,129,4a0.26,0.26,0,0,1,.2.3c0,0.92-.06,3.08-0.06,3.35S129,8,128.92,8s-0.23-.13-0.23-0.39a3.61,3.61,0,0,0,0-.46c-0.13-1.31-.56-1.64-3.87-1.67-1.25,0-2.26,0-3.22,0V17.17Z"/><path class="cls-2" d="M149,13c0.1,0,.2,0,0.2-0.16V12.21c0-4.33,0-5.09-.06-6a1.32,1.32,0,0,0-1.28-1.54,6.41,6.41,0,0,0-.82-0.07,0.33,0.33,0,0,1-.39-0.23c0-.2.16-0.23,0.46-0.23,1.38,0,3.31.1,3.45,0.1s2-.1,3-0.1c0.33,0,.53,0,0.53.23a0.3,0.3,0,0,1-.36.23,4.45,4.45,0,0,0-.66.07c-0.89.13-1,.66-1.08,1.58s0,1.64,0,6v4.92c0,2.69,0,4.82.13,6,0.1,0.79.26,1.44,1.12,1.54a8,8,0,0,0,1.15.1c0.26,0,.43.1,0.43,0.23s-0.17.23-.49,0.23c-1.64,0-3.54-.1-3.71-0.1s-2,.1-2.92.1c-0.33,0-.49-0.07-0.49-0.26s0.1-.2.36-0.2a3,3,0,0,0,.75-0.07c0.56-.1.72-0.82,0.82-1.58a54.89,54.89,0,0,0,.16-5.91V14.34a0.19,0.19,0,0,0-.2-0.2H137.12c-0.1,0-.16,0-0.16.2v2.92a56.27,56.27,0,0,0,.16,6c0.1,0.72.26,1.38,1.12,1.48a8.78,8.78,0,0,0,1.18.1,0.33,0.33,0,0,1,.39.23c0,0.13-.13.23-0.43,0.23-1.67,0-3.61-.1-3.77-0.1s-2.1.1-3,.1c-0.33,0-.53-0.07-0.53-0.23s0.06-.23.36-0.23a3.19,3.19,0,0,0,.79-0.1c0.59-.13.72-0.75,0.82-1.48a50.3,50.3,0,0,0,.16-6.07V12.31c0-4.33,0-5.19-.06-6.07A1.37,1.37,0,0,0,133,4.66a8.69,8.69,0,0,0-.89-0.07,0.31,0.31,0,0,1-.36-0.2c0-.2.16-0.23,0.49-0.23,1.41,0,3,.1,3.41.1,0.13,0,2-.1,3-0.1,0.33,0,.49.07,0.49,0.23s-0.13.2-.33,0.2a2.83,2.83,0,0,0-.66.07c-0.82.13-1,.69-1.08,1.61s0,1.61,0,5.94V12.8c0,0.16.1,0.16,0.2,0.16H149Z"/><path class="cls-2" d="M161.21,12.24c0-4.3,0-5.09-.07-6a1.39,1.39,0,0,0-1.25-1.58,5.46,5.46,0,0,0-.79-0.07,0.41,0.41,0,0,1-.43-0.2c0-.2.16-0.26,0.49-0.26,0.66,0,1.54.07,3.38,0.1,0.16,0,6,0,6.66,0a4.56,4.56,0,0,0,1.28-.16,1,1,0,0,1,.36-0.1C170.92,4,171,4,171,4.2a14.92,14.92,0,0,0-.26,1.48c0,0.56-.07,1.08-0.1,1.71,0,0.3-.07.49-0.23,0.49s-0.23-.13-0.23-0.36a3.16,3.16,0,0,0-.23-1.05c-0.2-.66-0.49-0.89-2.13-1-0.43,0-3.68-.07-3.74-0.07s-0.16.07-.16,0.26v7.45c0,0.2,0,.33.2,0.33,0.39,0,3.74,0,4.43-.1a1.85,1.85,0,0,0,1.51-.49,0.43,0.43,0,0,1,.36-0.26c0.07,0,.13,0,0.13.2s-0.13.79-.23,1.74-0.1,1.58-.13,2c0,0.26-.1.36-0.23,0.36s-0.2-.2-0.2-0.43a3.67,3.67,0,0,0-.1-0.79c-0.13-.43-0.33-0.89-1.58-1-0.75-.07-3.41-0.13-3.94-0.13a0.19,0.19,0,0,0-.23.23V17.2c0,1,0,3.91,0,4.46,0.07,1.21.23,1.84,0.92,2.13a6.23,6.23,0,0,0,2.4.3,9.78,9.78,0,0,0,2.49-.2c1-.3,1.21-1,1.48-2.17,0.07-.33.17-0.46,0.3-0.46s0.2,0.29.2,0.49-0.26,2.3-.36,2.85-0.36.72-1.44,0.72c-2.17,0-3.08-.07-4.23-0.07s-2.66-.1-3.87-0.1c-0.75,0-1.38.1-2.17,0.1-0.3,0-.46-0.07-0.46-0.23a0.26,0.26,0,0,1,.3-0.23,2.42,2.42,0,0,0,.66-0.1c0.59-.13,1-0.56,1-2.59,0-1.12.07-2.46,0.07-5V12.24Z"/><path class="cls-2" d="M179.22,16.15c0,4,.76,5.71,2,6.83a6.24,6.24,0,0,0,4.33,1.51,5.55,5.55,0,0,0,4.5-1.9c1.31-1.51,1.61-4,1.61-6.86V12.24c0-4.3,0-5.05-.07-5.94s-0.17-1.44-1.22-1.61a7.58,7.58,0,0,0-.92-0.07,0.29,0.29,0,0,1-.33-0.2c0-.2.16-0.26,0.46-0.26,1.41,0,3.05.1,3.18,0.1s1.58-.1,2.49-0.1c0.33,0,.46.07,0.46,0.23a0.28,0.28,0,0,1-.33.23,4.46,4.46,0,0,0-.59,0c-0.92.1-1.05,0.69-1.12,1.64s0,1.64,0,5.94v2.92c0,3-.33,6.5-2.66,8.5a8.52,8.52,0,0,1-6,2c-0.92,0-4,0-6.14-2-1.41-1.31-2.43-3.28-2.43-7.35V12.24c0-4.33,0-5.09-.1-6s-0.2-1.44-1.21-1.58a6.47,6.47,0,0,0-.85-0.07,0.31,0.31,0,0,1-.36-0.2c0-.2.13-0.26,0.49-0.26,1.41,0,3.18.1,3.41,0.1s2.2-.1,3.09-0.1c0.36,0,.46.07,0.46,0.23a0.35,0.35,0,0,1-.39.23,6.59,6.59,0,0,0-.72.07c-0.79.1-.92,0.66-1,1.58s0,1.64,0,6v3.91Z"/><path class="cls-2" d="M199.86,24.84c-0.46-.23-0.49-0.36-0.49-1.25,0-1.64.13-3,.16-3.48,0-.36.1-0.52,0.26-0.52S200,19.69,200,20a5.76,5.76,0,0,0,.1,1.21c0.49,2.43,2.66,3.35,4.86,3.35a4.38,4.38,0,0,0,4.69-4.37c0-2.26-1-3.58-3.77-5.91L204.42,13c-3.48-2.86-4.27-4.89-4.27-7.12,0-3.51,2.62-5.91,6.79-5.91A12.73,12.73,0,0,1,210,.33a5.33,5.33,0,0,0,1.15.16c0.26,0,.33.07,0.33,0.23S211.34,2,211.34,4.2c0,0.52-.07.76-0.23,0.76s-0.23-.16-0.26-0.43a5.72,5.72,0,0,0-.43-1.64c-0.2-.36-1.08-1.74-4.1-1.74a3.73,3.73,0,0,0-4,3.81c0,1.87.85,3.05,4,5.51l0.92,0.72c3.87,3.05,4.79,5.09,4.79,7.71a6.8,6.8,0,0,1-2.79,5.45,8.63,8.63,0,0,1-5,1.38A10,10,0,0,1,199.86,24.84Z"/></svg>