<?xml version="1.0" encoding="utf-8"?>
<!-- Generator: Adobe Illustrator 19.2.0, SVG Export Plug-In . SVG Version: 6.00 Build 0)  -->
<svg version="1.1" id="Capa_1" xmlns="http://www.w3.org/2000/svg" xmlns:xlink="http://www.w3.org/1999/xlink" x="0px" y="0px"
	 viewBox="0 0 39.7 39.7" style="enable-background:new 0 0 39.7 39.7;" xml:space="preserve">
<style type="text/css">
	.st0{fill:#FFFFFF;}
</style>
<g>
	<path class="st0" d="M31.3,4.2H8.4c-2.3,0-4.2,1.9-4.2,4.2v22.9c0,2.3,1.9,4.2,4.2,4.2h11.3l0-11.2h-2.9c-0.4,0-0.7-0.3-0.7-0.7
		l0-3.6c0-0.4,0.3-0.7,0.7-0.7h2.9v-3.5c0-4,2.5-6.2,6.1-6.2h3c0.4,0,0.7,0.3,0.7,0.7v3c0,0.4-0.3,0.7-0.7,0.7l-1.8,0
		c-2,0-2.3,0.9-2.3,2.3v3h4.3c0.4,0,0.7,0.4,0.7,0.8l-0.4,3.6c0,0.3-0.3,0.6-0.7,0.6h-3.9l0,11.2h6.7c2.3,0,4.2-1.9,4.2-4.2V8.4
		C35.5,6.1,33.6,4.2,31.3,4.2L31.3,4.2z"/>
</g>
<g>
</g>
<g>
</g>
<g>
</g>
<g>
</g>
<g>
</g>
<g>
</g>
</svg>
