<?xml version="1.0" encoding="utf-8"?>
<!-- Generator: Adobe Illustrator 19.2.0, SVG Export Plug-In . SVG Version: 6.00 Build 0)  -->
<svg version="1.1" id="Capa_1" xmlns="http://www.w3.org/2000/svg" xmlns:xlink="http://www.w3.org/1999/xlink" x="0px" y="0px"
	 viewBox="0 0 39.7 39.7" style="enable-background:new 0 0 39.7 39.7;" xml:space="preserve">
<style type="text/css">
	.st0{fill:#FFFFFF;}
</style>
<g>
	<path class="st0" d="M27.3,3.2H12.4c-5.1,0-9.2,4.1-9.2,9.2v14.9c0,5.1,4.1,9.2,9.2,9.2h14.9c5.1,0,9.2-4.1,9.2-9.2V12.4
		C36.5,7.3,32.4,3.2,27.3,3.2L27.3,3.2z M33.5,27.3c0,3.4-2.8,6.2-6.2,6.2H12.4c-3.4,0-6.2-2.8-6.2-6.2V12.4C6.2,9,9,6.2,12.4,6.2
		h14.9c3.4,0,6.2,2.8,6.2,6.2V27.3z M33.5,27.3"/>
	<path class="st0" d="M19.8,11.3c-4.7,0-8.6,3.8-8.6,8.6c0,4.7,3.8,8.6,8.6,8.6c4.7,0,8.6-3.8,8.6-8.6
		C28.4,15.1,24.6,11.3,19.8,11.3L19.8,11.3z M19.8,25.5c-3.1,0-5.6-2.5-5.6-5.6c0-3.1,2.5-5.6,5.6-5.6c3.1,0,5.6,2.5,5.6,5.6
		C25.5,22.9,22.9,25.5,19.8,25.5L19.8,25.5z M19.8,25.5"/>
	<path class="st0" d="M28.8,8.8c-0.6,0-1.1,0.2-1.5,0.6c-0.4,0.4-0.6,1-0.6,1.5c0,0.6,0.2,1.1,0.6,1.5c0.4,0.4,1,0.6,1.5,0.6
		c0.6,0,1.1-0.2,1.5-0.6c0.4-0.4,0.6-1,0.6-1.5c0-0.6-0.2-1.1-0.6-1.5C29.9,9,29.3,8.8,28.8,8.8L28.8,8.8z M28.8,8.8"/>
</g>
<g>
</g>
<g>
</g>
<g>
</g>
<g>
</g>
<g>
</g>
<g>
</g>
</svg>
