<?xml version="1.0" encoding="utf-8"?>
<!-- Generator: Adobe Illustrator 19.2.0, SVG Export Plug-In . SVG Version: 6.00 Build 0)  -->
<svg version="1.1" id="Capa_1" xmlns="http://www.w3.org/2000/svg" xmlns:xlink="http://www.w3.org/1999/xlink" x="0px" y="0px"
	 viewBox="0 0 39.7 39.7" style="enable-background:new 0 0 39.7 39.7;" xml:space="preserve">
<style type="text/css">
	.st0{clip-path:url(#SVGID_2_);fill:#FFFFFF;}
</style>
<g>
	<g>
		<defs>
			<rect id="SVGID_1_" x="0.3" y="3.4" width="39" height="32.9"/>
		</defs>
		<clipPath id="SVGID_2_">
			<use xlink:href="#SVGID_1_"  style="overflow:visible;"/>
		</clipPath>
		<path class="st0" d="M37.7,5c-0.9-1-2.3-1.6-4.1-1.6c-4.9-0.2-8.4,2.5-10.4,7.8c-0.1,0.3,0,0.6,0.2,0.8c0.2,0.2,0.5,0.3,0.8,0.2
			c0.6-0.2,1.1-0.2,1.7-0.2c0.7,0,1.7,0.1,2.2,0.8c0.4,0.5,0.4,1.2,0.1,2.2c-0.2,0.8-1.4,2.9-2.8,5.2c-1.8,2.8-2.7,4-3,4
			C21.4,24.2,18.1,9.3,18,9c-1-3.4-1.4-5.1-4.6-5.1c-2.4,0-7.7,4.3-12,8.1c-0.3,0.2-0.5,0.4-0.7,0.6c-0.4,0.4-0.5,1-0.1,1.4l0.8,1
			c0.3,0.4,1,0.5,1.4,0.2l0,0c1.4-1,2.7-2,3.7-2c1.1-0.1,2,1.7,3.2,5.7c2.2,7.9,5.4,17.3,8.8,17.3c3.5,0,7.7-3,13.1-10
			c4.9-6.4,7.5-11.4,7.7-15.1l0,0C39.5,8.4,38.9,6.3,37.7,5L37.7,5z"/>
	</g>
</g>
<g>
</g>
<g>
</g>
<g>
</g>
<g>
</g>
<g>
</g>
<g>
</g>
</svg>
