<?xml version="1.0" encoding="utf-8"?>
<!-- Generator: Adobe Illustrator 19.2.0, SVG Export Plug-In . SVG Version: 6.00 Build 0)  -->
<svg version="1.1" id="Capa_1" xmlns="http://www.w3.org/2000/svg" xmlns:xlink="http://www.w3.org/1999/xlink" x="0px" y="0px"
	 viewBox="0 0 39.7 39.7" style="enable-background:new 0 0 39.7 39.7;" xml:space="preserve">
<style type="text/css">
	.st0{fill:#FFFFFF;}
</style>
<g>
	<path class="st0" d="M25.4,20.4l-10.1,4.8c-0.3,0.1-0.6-0.1-0.6-0.4v-9.9c0-0.3,0.3-0.5,0.6-0.4l10.1,5.1
		C25.7,19.8,25.7,20.2,25.4,20.4L25.4,20.4z M30.6,6.8H9.1c-4.2,0-7.6,3.4-7.6,7.6v10.8c0,4.2,3.4,7.6,7.6,7.6h21.5
		c4.2,0,7.6-3.4,7.6-7.6V14.5C38.2,10.2,34.8,6.8,30.6,6.8L30.6,6.8z"/>
</g>
<g>
</g>
<g>
</g>
<g>
</g>
<g>
</g>
<g>
</g>
<g>
</g>
</svg>
